<?xml version="1.0" encoding="UTF-8" standalone="no"?><svg xmlns="http://www.w3.org/2000/svg" xmlns:xlink="http://www.w3.org/1999/xlink" fill="#000000" height="1080" preserveAspectRatio="xMidYMid meet" version="1" viewBox="0.0 0.0 1920.0 1080.0" width="1920" zoomAndPan="magnify"><linearGradient gradientTransform="rotate(180 251 412.597)" gradientUnits="userSpaceOnUse" id="a" x1="-802.96" x2="-113.04" xlink:actuate="onLoad" xlink:show="other" xlink:type="simple" y1="586.527" y2="-608.45"><stop offset="0" stop-color="#04c4d9"/><stop offset="0.504" stop-color="#fffcfc"/><stop offset="1" stop-color="#038abf"/></linearGradient><path d="M0 1078.55L1920 1078.55 1920 593.76 0 593.76z" fill="url(#a)"/><linearGradient gradientTransform="translate(0 2)" gradientUnits="userSpaceOnUse" id="b" x1="486.173" x2="1433.827" xlink:actuate="onLoad" xlink:show="other" xlink:type="simple" y1="1358.692" y2="-282.692"><stop offset="0" stop-color="#04c4d9"/><stop offset="0.504" stop-color="#fffcfc"/><stop offset="1" stop-color="#038abf"/></linearGradient><path d="M0 0H1920V1080H0z" fill="url(#b)"/><linearGradient gradientUnits="userSpaceOnUse" id="c" x1="1867.744" x2="217.196" xlink:actuate="onLoad" xlink:show="other" xlink:type="simple" y1="1170.511" y2="217.566"><stop offset="0" stop-color="#04c4d9"/><stop offset="0.504" stop-color="#fffcfc"/><stop offset="1" stop-color="#038abf"/></linearGradient><path d="M1920,213.52c-154.05-95.89-349.64-148.22-563.66-94.49C818,254.15,986.91,763.07,548.83,834.99C176.76,896.08,0,593.76,0,593.76 L0.24,1080H1920V213.52z" fill="url(#c)" opacity="0.8"/><linearGradient gradientTransform="translate(0 2)" gradientUnits="userSpaceOnUse" id="d" x1="958.81" x2="958.81" xlink:actuate="onLoad" xlink:show="other" xlink:type="simple" y1="61.445" y2="1078"><stop offset="0" stop-color="#04c4d9"/><stop offset="0.504" stop-color="#fffcfc"/><stop offset="1" stop-color="#038abf"/></linearGradient><path d="M0.95,185.64c0,0,566.56,603.65,1165.68,603.65s750.99-725.84,750.99-725.84V1080H0L0.95,185.64z" fill="url(#d)" opacity="0.8"/></svg>